<?xml version="1.0" encoding="UTF-8" standalone="no"?>
<svg
   xmlns:dc="http://purl.org/dc/elements/1.1/"
   xmlns:cc="http://creativecommons.org/ns#"
   xmlns:rdf="http://www.w3.org/1999/02/22-rdf-syntax-ns#"
   xmlns:svg="http://www.w3.org/2000/svg"
   xmlns="http://www.w3.org/2000/svg"
   viewBox="0 0 630 630"
   height="630"
   width="630"
   xml:space="preserve"
   version="1.1"
   id="svg2"><metadata
     id="metadata8"><rdf:RDF><cc:Work
         rdf:about=""><dc:format>image/svg+xml</dc:format><dc:type
           rdf:resource="http://purl.org/dc/dcmitype/StillImage" /></cc:Work></rdf:RDF></metadata><defs
     id="defs6"><clipPath
       id="clipPath18"
       clipPathUnits="userSpaceOnUse"><path
         id="path20"
         d="m 59.04,73.44 414.72,0 0,371.52 -414.72,0 0,-371.52 z" /></clipPath><clipPath
       id="clipPath98"
       clipPathUnits="userSpaceOnUse"><path
         id="path100"
         d="m 59.04,73.44 414.72,0 0,371.52 -414.72,0 0,-371.52 z" /></clipPath></defs><g
     transform="matrix(1.25,0,0,-1.25,0,630)"
     id="g10"><g
       id="g12" /><g
       id="g14"><g
         clip-path="url(#clipPath18)"
         id="g16"><path
           id="path22"
           style="fill:none;stroke:#006400;stroke-width:0.75;stroke-linecap:round;stroke-linejoin:round;stroke-miterlimit:10;stroke-dasharray:none;stroke-opacity:1"
           d="m 74.4,87.39 0.75,0.08 0.75,0.09 0.75,0.1 0.76,0.12 0.75,0.12 0.75,0.14 0.75,0.16 0.75,0.18 0.75,0.19 0.75,0.22 0.76,0.23 0.75,0.26 0.75,0.29 0.75,0.32 0.75,0.35 0.75,0.37 0.75,0.42 0.76,0.46 0.75,0.49 0.75,0.54 0.75,0.6 0.75,0.64 0.75,0.68 0.76,0.76 0.75,0.81 0.75,0.87 0.75,0.93 0.75,1.02 0.75,1.09 0.75,1.16 0.76,1.24 0.75,1.34 0.75,1.42 0.75,1.49 0.75,1.63 0.75,1.7 0.75,1.8 0.76,1.91 0.75,2.03 0.75,2.13 0.75,2.22 0.75,2.37 0.75,2.48 0.75,2.58 0.76,2.69 0.75,2.85 0.75,2.94 0.75,3.05 0.75,3.19 0.75,3.32 0.75,3.41 0.76,3.51 0.75,3.67 0.75,3.76 0.75,3.85 0.75,3.97 0.75,4.07 0.76,4.16 0.75,4.23 0.75,4.35 0.75,4.41 0.75,4.47 0.75,4.54 0.75,4.61 0.76,4.65 0.75,4.68 0.75,4.74 0.75,4.75 0.75,4.77 0.75,4.78 0.75,4.79 0.76,4.77 0.75,4.77 0.75,4.74 0.75,4.7 0.75,4.68 0.75,4.63 0.75,4.56 0.76,4.51 0.75,4.46 0.75,4.37 0.75,4.29 0.75,4.22 0.75,4.15 0.75,4.02 0.76,3.94 0.75,3.86 0.75,3.75 0.75,3.63 0.75,3.55 0.75,3.47 0.76,3.33 0.75,3.23 0.75,3.15 0.75,3.06 0.75,2.93 0.75,2.86 0.75,2.78 0.76,2.67 0.75,2.59 0.75,2.53 0.75,2.45 0.75,2.36 0.75,2.3 0.75,2.25 0.76,2.19 0.75,2.13 0.75,2.08 0.75,2.05 0.75,2 0.75,1.96 0.75,1.94 0.76,1.9 0.75,1.88 0.75,1.86 0.75,1.84 0.75,1.82 0.75,1.8 0.75,1.8 0.76,1.78 0.75,1.76 0.75,1.76 0.75,1.75 0.75,1.74 0.75,1.73 0.75,1.71 0.76,1.71 0.75,1.69 0.75,1.67 0.75,1.66 0.75,1.64 0.75,1.61 0.76,1.6 0.75,1.56 0.75,1.53 0.75,1.5 0.75,1.46 0.75,1.42 0.75,1.37 0.76,1.32 0.75,1.28 0.75,1.21 0.75,1.14 0.75,1.09 0.75,1.02 0.75,0.92 0.76,0.85 0.75,0.78 0.75,0.66 0.75,0.57 0.75,0.48 0.75,0.39 0.75,0.23 0.76,0.14 0.75,0.03 0.75,-0.11 0.75,-0.25 0.75,-0.37 0.75,-0.49 0.75,-0.69 0.76,-0.81 0.75,-0.94 0.75,-1.1 0.75,-1.29 0.75,-1.42 0.75,-1.56 0.76,-1.77 0.75,-1.93 0.75,-2.06 0.75,-2.22 0.75,-2.43 0.75,-2.57 0.75,-2.7 0.76,-2.9 0.75,-3.06 0.75,-3.18 0.75,-3.32 0.75,-3.51 0.75,-3.63 0.75,-3.75 0.76,-3.88 0.75,-4.02 0.75,-4.12 0.75,-4.2 0.75,-4.34 0.75,-4.42 0.75,-4.48 0.76,-4.56 0.75,-4.63 0.75,-4.68 0.75,-4.71 0.75,-4.76 0.75,-4.78 0.75,-4.79 0.76,-4.79 0.75,-4.79 0.75,-4.77 0.75,-4.75 0.75,-4.72 0.75,-4.67 0.76,-4.62 0.75,-4.58 0.75,-4.48 0.75,-4.42 0.75,-4.35 0.75,-4.26 0.75,-4.15 0.76,-4.07 0.75,-3.99 0.75,-3.84 0.75,-3.74 0.75,-3.64 0.75,-3.53 0.75,-3.39 0.76,-3.28 0.75,-3.19 0.75,-3.03 0.75,-2.92 0.75,-2.82 0.75,-2.7 0.75,-2.56 0.76,-2.46 0.75,-2.36 0.75,-2.23 0.75,-2.13 0.75,-2.04 0.75,-1.94 0.75,-1.82 0.76,-1.74 0.75,-1.66 0.75,-1.57 0.75,-1.48 0.75,-1.41 0.75,-1.35 0.75,-1.25 0.76,-1.2 0.75,-1.15 0.75,-1.08 0.75,-1.02 0.75,-0.97 0.75,-0.94 0.76,-0.87 0.75,-0.84 0.75,-0.8 0.75,-0.77 0.75,-0.72 0.75,-0.7 0.75,-0.68 0.76,-0.64 0.75,-0.62 0.75,-0.6 0.75,-0.58 0.75,-0.55 0.75,-0.55 0.75,-0.53 0.76,-0.52 0.75,-0.51 0.75,-0.5 0.75,-0.49 0.75,-0.49 0.75,-0.49 0.75,-0.49 0.76,-0.49 0.75,-0.49 0.75,-0.5 0.75,-0.5 0.75,-0.52 0.75,-0.52 0.75,-0.54 0.76,-0.55 0.75,-0.57 0.75,-0.59 0.75,-0.6 0.75,-0.63 0.75,-0.64 0.76,-0.67 0.75,-0.69 0.75,-0.72 0.75,-0.74 0.75,-0.76 0.75,-0.79 0.75,-0.81 0.76,-0.83 0.75,-0.86 0.75,-0.88 0.75,-0.9 0.75,-0.91 0.75,-0.94 0.75,-0.95 0.76,-0.96 0.75,-0.97 0.75,-0.98 0.75,-0.98 0.75,-0.99 0.75,-0.98 0.75,-0.98 0.76,-0.98 0.75,-0.96 0.75,-0.95 0.75,-0.92 0.75,-0.91 0.75,-0.89 0.75,-0.86 0.76,-0.82 0.75,-0.8 0.75,-0.76 0.75,-0.71 0.75,-0.68 0.75,-0.65 0.75,-0.58 0.76,-0.54 0.75,-0.5 0.75,-0.44 0.75,-0.39 0.75,-0.34 0.75,-0.29 0.76,-0.23 0.75,-0.17 0.75,-0.14 0.75,-0.08 0.75,-0.01 0.75,0.03 0.75,0.07 0.76,0.13 0.75,0.18 0.75,0.22 0.75,0.26 0.75,0.31 0.75,0.35 0.75,0.38 0.76,0.42 0.75,0.45 0.75,0.48 0.75,0.5 0.75,0.53 0.75,0.55 0.75,0.56 0.76,0.58 0.75,0.6 0.75,0.6 0.75,0.6 0.75,0.61 0.75,0.61 0.75,0.6 0.76,0.6 0.75,0.58 0.75,0.57 0.75,0.55 0.75,0.53 0.75,0.51 0.76,0.49 0.75,0.46 0.75,0.42 0.75,0.39 0.75,0.36 0.75,0.32 0.75,0.27 0.76,0.24 0.75,0.2 0.75,0.14 0.75,0.09 0.75,0.06 0.75,0 0.75,-0.05 0.76,-0.1 0.75,-0.14 0.75,-0.2 0.75,-0.25 0.75,-0.3 0.75,-0.34 0.75,-0.4 0.76,-0.44 0.75,-0.48 0.75,-0.53 0.75,-0.57 0.75,-0.6 0.75,-0.63 0.75,-0.68 0.76,-0.71 0.75,-0.72 0.75,-0.75 0.75,-0.77 0.75,-0.79 0.75,-0.79 0.76,-0.81 0.75,-0.81 0.75,-0.81 0.75,-0.8 0.75,-0.8 0.75,-0.78 0.75,-0.77 0.76,-0.75 0.75,-0.72 0.75,-0.7 0.75,-0.68 0.75,-0.63 0.75,-0.6 0.75,-0.57 0.76,-0.53 0.75,-0.47 0.75,-0.45 0.75,-0.4 0.75,-0.35 0.75,-0.3 0.75,-0.27 0.76,-0.22 0.75,-0.16 0.75,-0.13 0.75,-0.1 0.75,-0.04 0.75,0 0.75,0.02 0.76,0.07 0.75,0.09 0.75,0.13 0.75,0.14 0.75,0.17 0.75,0.19 0.75,0.19 0.76,0.21 0.75,0.22 0.75,0.21 0.75,0.22 0.75,0.2 0.75,0.2 0.76,0.18 0.75,0.17 0.75,0.14 0.75,0.12 0.75,0.09 0.75,0.06 0.75,0.03 0.76,-0.01 0.75,-0.05 0.75,-0.09 0.75,-0.13 0.75,-0.18 0.75,-0.21 0.75,-0.27 0.76,-0.31 0.75,-0.35 0.75,-0.41 0.75,-0.45 0.75,-0.48 0.75,-0.53 0.75,-0.58 0.76,-0.62 0.75,-0.64 0.75,-0.69 0.75,-0.73 0.75,-0.75 0.75,-0.77 0.75,-0.81 0.76,-0.83 0.75,-0.85 0.75,-0.86 0.75,-0.88 0.75,-0.89 0.75,-0.9 0.76,-0.9 0.75,-0.91 0.75,-0.9 0.75,-0.91 0.75,-0.89 0.75,-0.89 0.75,-0.88 0.76,-0.86 0.75,-0.85 0.75,-0.83 0.75,-0.82 0.75,-0.79 0.75,-0.77 0.75,-0.76 0.76,-0.72 0.75,-0.7 0.75,-0.68 0.75,-0.66 0.75,-0.62 0.75,-0.6 0.75,-0.57 0.76,-0.55 0.75,-0.51 0.75,-0.5 0.75,-0.47 0.75,-0.44 0.75,-0.41 0.75,-0.4 0.76,-0.37 0.75,-0.34 0.75,-0.33 0.75,-0.3 0.75,-0.28 0.75,-0.27 0.76,-0.24 0.75,-0.23 0.75,-0.21 0.75,-0.19 0.75,-0.18 0.75,-0.17 0.75,-0.14 0.76,-0.14 0.75,-0.13 0.75,-0.12 0.75,-0.1 0.75,-0.1 0.75,-0.09 0.75,-0.07 0.76,-0.07 0.75,-0.07 0.75,-0.06 0.75,-0.05" /></g></g><g
       id="g24"><path
         id="path26"
         style="fill:none;stroke:#000000;stroke-width:0.75;stroke-linecap:round;stroke-linejoin:round;stroke-miterlimit:10;stroke-dasharray:none;stroke-opacity:1"
         d="m 70.09,73.44 317.77,0" /><path
         id="path28"
         style="fill:none;stroke:#000000;stroke-width:0.75;stroke-linecap:round;stroke-linejoin:round;stroke-miterlimit:10;stroke-dasharray:none;stroke-opacity:1"
         d="m 70.09,73.44 0,-7.2" /><path
         id="path30"
         style="fill:none;stroke:#000000;stroke-width:0.75;stroke-linecap:round;stroke-linejoin:round;stroke-miterlimit:10;stroke-dasharray:none;stroke-opacity:1"
         d="m 176.02,73.44 0,-7.2" /><path
         id="path32"
         style="fill:none;stroke:#000000;stroke-width:0.75;stroke-linecap:round;stroke-linejoin:round;stroke-miterlimit:10;stroke-dasharray:none;stroke-opacity:1"
         d="m 281.94,73.44 0,-7.2" /><path
         id="path34"
         style="fill:none;stroke:#000000;stroke-width:0.75;stroke-linecap:round;stroke-linejoin:round;stroke-miterlimit:10;stroke-dasharray:none;stroke-opacity:1"
         d="m 387.86,73.44 0,-7.2" /><text
         id="text36"
         style="font-variant:normal;font-weight:normal;font-size:12px;font-family:Helvetica;-inkscape-font-specification:Helvetica;writing-mode:lr-tb;fill:#000000;fill-opacity:1;fill-rule:nonzero;stroke:none"
         transform="matrix(1,0,0,-1,66.76,47.52)"><tspan
           id="tspan38"
           y="0"
           x="0">0</tspan></text>
<text
         id="text40"
         style="font-variant:normal;font-weight:normal;font-size:12px;font-family:Helvetica;-inkscape-font-specification:Helvetica;writing-mode:lr-tb;fill:#000000;fill-opacity:1;fill-rule:nonzero;stroke:none"
         transform="matrix(1,0,0,-1,162.67,47.52)"><tspan
           id="tspan42"
           y="0"
           x="0 6.6719999 13.344 20.016001">5000</tspan></text>
<text
         id="text44"
         style="font-variant:normal;font-weight:normal;font-size:12px;font-family:Helvetica;-inkscape-font-specification:Helvetica;writing-mode:lr-tb;fill:#000000;fill-opacity:1;fill-rule:nonzero;stroke:none"
         transform="matrix(1,0,0,-1,265.26,47.52)"><tspan
           id="tspan46"
           y="0"
           x="0 6.6719999 13.344 20.016001 26.688">10000</tspan></text>
<text
         id="text48"
         style="font-variant:normal;font-weight:normal;font-size:12px;font-family:Helvetica;-inkscape-font-specification:Helvetica;writing-mode:lr-tb;fill:#000000;fill-opacity:1;fill-rule:nonzero;stroke:none"
         transform="matrix(1,0,0,-1,371.18,47.52)"><tspan
           id="tspan50"
           y="0"
           x="0 6.6719999 13.344 20.016001 26.688">15000</tspan></text>
<path
         id="path52"
         style="fill:none;stroke:#000000;stroke-width:0.75;stroke-linecap:round;stroke-linejoin:round;stroke-miterlimit:10;stroke-dasharray:none;stroke-opacity:1"
         d="m 59.04,86.79 0,303.48" /><path
         id="path54"
         style="fill:none;stroke:#000000;stroke-width:0.75;stroke-linecap:round;stroke-linejoin:round;stroke-miterlimit:10;stroke-dasharray:none;stroke-opacity:1"
         d="m 59.04,86.79 -7.2,0" /><path
         id="path56"
         style="fill:none;stroke:#000000;stroke-width:0.75;stroke-linecap:round;stroke-linejoin:round;stroke-miterlimit:10;stroke-dasharray:none;stroke-opacity:1"
         d="m 59.04,187.95 -7.2,0" /><path
         id="path58"
         style="fill:none;stroke:#000000;stroke-width:0.75;stroke-linecap:round;stroke-linejoin:round;stroke-miterlimit:10;stroke-dasharray:none;stroke-opacity:1"
         d="m 59.04,289.11 -7.2,0" /><path
         id="path60"
         style="fill:none;stroke:#000000;stroke-width:0.75;stroke-linecap:round;stroke-linejoin:round;stroke-miterlimit:10;stroke-dasharray:none;stroke-opacity:1"
         d="m 59.04,390.27 -7.2,0" /><text
         id="text62"
         style="font-variant:normal;font-weight:normal;font-size:12px;font-family:Helvetica;-inkscape-font-specification:Helvetica;writing-mode:lr-tb;fill:#000000;fill-opacity:1;fill-rule:nonzero;stroke:none"
         transform="matrix(0,1,1,0,41.76,65.1)"><tspan
           id="tspan64"
           y="0"
           x="0 6.6719999 10.008 16.68 23.351999 30.024 36.695999">0.00000</tspan></text>
<text
         id="text66"
         style="font-variant:normal;font-weight:normal;font-size:12px;font-family:Helvetica;-inkscape-font-specification:Helvetica;writing-mode:lr-tb;fill:#000000;fill-opacity:1;fill-rule:nonzero;stroke:none"
         transform="matrix(0,1,1,0,41.76,166.26)"><tspan
           id="tspan68"
           y="0"
           x="0 6.6719999 10.008 16.68 23.351999 30.024 36.695999">0.00005</tspan></text>
<text
         id="text70"
         style="font-variant:normal;font-weight:normal;font-size:12px;font-family:Helvetica;-inkscape-font-specification:Helvetica;writing-mode:lr-tb;fill:#000000;fill-opacity:1;fill-rule:nonzero;stroke:none"
         transform="matrix(0,1,1,0,41.76,267.43)"><tspan
           id="tspan72"
           y="0"
           x="0 6.6719999 10.008 16.68 23.351999 30.024 36.695999">0.00010</tspan></text>
<text
         id="text74"
         style="font-variant:normal;font-weight:normal;font-size:12px;font-family:Helvetica;-inkscape-font-specification:Helvetica;writing-mode:lr-tb;fill:#000000;fill-opacity:1;fill-rule:nonzero;stroke:none"
         transform="matrix(0,1,1,0,41.76,368.59)"><tspan
           id="tspan76"
           y="0"
           x="0 6.6719999 10.008 16.68 23.351999 30.024 36.695999">0.00015</tspan></text>
<path
         id="path78"
         style="fill:none;stroke:#000000;stroke-width:0.75;stroke-linecap:round;stroke-linejoin:round;stroke-miterlimit:10;stroke-dasharray:none;stroke-opacity:1"
         d="m 59.04,73.44 414.72,0 0,371.52 -414.72,0 0,-371.52" /></g><g
       id="g80"><text
         id="text82"
         style="font-variant:normal;font-weight:bold;font-size:14px;font-family:Helvetica;-inkscape-font-specification:Helvetica-Bold;writing-mode:lr-tb;fill:#000000;fill-opacity:1;fill-rule:nonzero;stroke:none"
         transform="matrix(1,0,0,-1,247.35,469.45)"><tspan
           id="tspan84"
           y="0"
           x="0 9.3380003 19.445999 29.554001">PCNT</tspan></text>
<text
         id="text86"
         style="font-variant:normal;font-weight:normal;font-size:12px;font-family:Helvetica;-inkscape-font-specification:Helvetica;writing-mode:lr-tb;fill:#000000;fill-opacity:1;fill-rule:nonzero;stroke:none"
         transform="matrix(1,0,0,-1,220.9,18.72)"><tspan
           id="tspan88"
           y="0"
           x="0 7.3319998 14.004 20.676001 27.348 33.348 40.02 46.692001 53.363998 59.363998 62.700001 68.699997 78.695999 84.323997">Thousands/cm^3</tspan></text>
<text
         id="text90"
         style="font-variant:normal;font-weight:normal;font-size:12px;font-family:Helvetica;-inkscape-font-specification:Helvetica;writing-mode:lr-tb;fill:#000000;fill-opacity:1;fill-rule:nonzero;stroke:none"
         transform="matrix(0,1,1,0,12.96,239.2)"><tspan
           id="tspan92"
           y="0"
           x="0 8.6639996 15.336 22.007999 28.007999 30.672001 34.007999">Density</tspan></text>
</g><g
       id="g94"><g
         clip-path="url(#clipPath98)"
         id="g96"><path
           id="path102"
           style="fill:none;stroke:#bebebe;stroke-width:0.08;stroke-linecap:round;stroke-linejoin:round;stroke-miterlimit:10;stroke-dasharray:none;stroke-opacity:1"
           d="m 59.04,86.79 414.72,0" /><path
           id="path104"
           style="fill:none;stroke:#0000ff;stroke-width:0.75;stroke-linecap:round;stroke-linejoin:round;stroke-miterlimit:10;stroke-dasharray:2.25, 3.75;stroke-dashoffset:0;stroke-opacity:1"
           d="m 11.53,86.86 2.13,0.01 2.12,0.01 2.13,0.01 2.13,0.01 2.13,0.01 2.13,0.01 2.13,0.01 2.13,0.02 2.13,0.01 2.13,0.02 2.13,0.02 2.13,0.01 2.13,0.02 2.13,0.03 2.13,0.02 2.13,0.02 2.13,0.03 2.13,0.03 2.12,0.03 2.13,0.03 2.13,0.04 2.13,0.04 2.13,0.04 2.13,0.04 2.13,0.05 2.13,0.05 2.13,0.05 2.13,0.05 2.13,0.06 2.13,0.07 2.13,0.06 2.13,0.07 2.13,0.08 2.13,0.08 2.12,0.08 2.13,0.09 2.13,0.09 2.13,0.1 2.13,0.1 2.13,0.11 2.13,0.11 2.13,0.12 2.13,0.13 2.13,0.13 2.13,0.14 2.13,0.14 2.13,0.15 2.13,0.16 2.13,0.16 2.13,0.17 2.13,0.18 2.12,0.18 2.13,0.19 2.13,0.21 2.13,0.2 2.13,0.21 2.13,0.23 2.13,0.22 2.13,0.24 2.13,0.24 2.13,0.26 2.13,0.25 2.13,0.27 2.13,0.27 2.13,0.28 2.13,0.29 2.13,0.3 2.13,0.3 2.12,0.31 2.13,0.31 2.13,0.32 2.13,0.33 2.13,0.34 2.13,0.34 2.13,0.34 2.13,0.35 2.13,0.36 2.13,0.36 2.13,0.36 2.13,0.37 2.13,0.37 2.13,0.38 2.13,0.38 2.13,0.38 2.12,0.38 2.13,0.39 2.13,0.38 2.13,0.39 2.13,0.39 2.13,0.38 2.13,0.39 2.13,0.39 2.13,0.38 2.13,0.38 2.13,0.38 2.13,0.38 2.13,0.38 2.13,0.37 2.13,0.37 2.13,0.36 2.13,0.36 2.12,0.35 2.13,0.35 2.13,0.35 2.13,0.33 2.13,0.34 2.13,0.32 2.13,0.32 2.13,0.31 2.13,0.3 2.13,0.3 2.13,0.29 2.13,0.28 2.13,0.28 2.13,0.27 2.13,0.25 2.13,0.26 2.13,0.24 2.12,0.24 2.13,0.23 2.13,0.22 2.13,0.21 2.13,0.21 2.13,0.2 2.13,0.19 2.13,0.19 2.13,0.18 2.13,0.18 2.13,0.17 2.13,0.16 2.13,0.16 2.13,0.16 2.13,0.15 2.13,0.14 2.12,0.15 2.13,0.14 2.13,0.14 2.13,0.14 2.13,0.13 2.13,0.14 2.13,0.13 2.13,0.14 2.13,0.13 2.13,0.14 2.13,0.14 2.13,0.14 2.13,0.15 2.13,0.15 2.13,0.15 2.13,0.16 2.13,0.16 2.12,0.17 2.13,0.18 2.13,0.18 2.13,0.2 2.13,0.19 2.13,0.22 2.13,0.21 2.13,0.23 2.13,0.24 2.13,0.25 2.13,0.27 2.13,0.27 2.13,0.29 2.13,0.3 2.13,0.32 2.13,0.33 2.12,0.34 2.13,0.37 2.13,0.37 2.13,0.39 2.13,0.41 2.13,0.43 2.13,0.44 2.13,0.46 2.13,0.48 2.13,0.5 2.13,0.51 2.13,0.53 2.13,0.55 2.13,0.58 2.13,0.58 2.13,0.61 2.13,0.63 2.12,0.64 2.13,0.67 2.13,0.68 2.13,0.7 2.13,0.72 2.13,0.74 2.13,0.75 2.13,0.78 2.13,0.79 2.13,0.8 2.13,0.82 2.13,0.84 2.13,0.85 2.13,0.87 2.13,0.88 2.13,0.89 2.13,0.91 2.12,0.91 2.13,0.93 2.13,0.94 2.13,0.94 2.13,0.96 2.13,0.96 2.13,0.96 2.13,0.97 2.13,0.98 2.13,0.98 2.13,0.97 2.13,0.98 2.13,0.98 2.13,0.98 2.13,0.97 2.13,0.97 2.12,0.97 2.13,0.96 2.13,0.95 2.13,0.94 2.13,0.93 2.13,0.92 2.13,0.91 2.13,0.9 2.13,0.88 2.13,0.86 2.13,0.85 2.13,0.84 2.13,0.81 2.13,0.8 0.58,0.21" /><path
           id="path106"
           style="fill:none;stroke:#000000;stroke-width:0.75;stroke-linecap:round;stroke-linejoin:round;stroke-miterlimit:10;stroke-dasharray:none;stroke-opacity:1"
           d="m 366.68,390.27 98.05,0 0,-34.56 -98.05,0 0,34.56 z" /><path
           id="path108"
           style="fill:none;stroke:#006400;stroke-width:0.75;stroke-linecap:round;stroke-linejoin:round;stroke-miterlimit:10;stroke-dasharray:none;stroke-opacity:1"
           d="m 375.32,378.75 17.28,0" /><path
           id="path110"
           style="fill:none;stroke:#0000ff;stroke-width:0.75;stroke-linecap:round;stroke-linejoin:round;stroke-miterlimit:10;stroke-dasharray:2.25, 3.75;stroke-dashoffset:0;stroke-opacity:1"
           d="m 375.32,367.23 17.28,0" /><text
           id="text112"
           style="font-variant:normal;font-weight:normal;font-size:10px;font-family:Helvetica;-inkscape-font-specification:Helvetica;writing-mode:lr-tb;fill:#000000;fill-opacity:1;fill-rule:nonzero;stroke:none"
           transform="matrix(1,0,0,-1,401.24,375.16)"><tspan
             id="tspan114"
             y="0"
             x="0 7.2199998 12.22 17.780001 23.34 26.120001 32.389999 37.950001 41.43">Hyde Park</tspan></text>
<text
           id="text116"
           style="font-variant:normal;font-weight:normal;font-size:10px;font-family:Helvetica;-inkscape-font-specification:Helvetica;writing-mode:lr-tb;fill:#000000;fill-opacity:1;fill-rule:nonzero;stroke:none"
           transform="matrix(1,0,0,-1,401.24,363.64)"><tspan
             id="tspan118"
             y="0"
             x="0 7.7800002 12.78 15.26 20.82 24.15 29.709999 32.490002 39.16 41.939999 45.27 50.830002 56.389999">Oxford Street</tspan></text>
</g></g></g></svg>